<?xml version="1.0" encoding="UTF-8" standalone="no"?>
<!DOCTYPE svg PUBLIC "-//W3C//DTD SVG 1.1//EN" "http://www.w3.org/Graphics/SVG/1.1/DTD/svg11.dtd">
<svg version="1.1" xmlns="http://www.w3.org/2000/svg" xmlns:xlink="http://www.w3.org/1999/xlink" preserveAspectRatio="xMidYMid meet" viewBox="0 0 353 611" width="353" height="611"><defs><path d="M309.71 472.07L322.75 469.68L324.69 480.25L311.65 482.64L309.71 472.07Z" id="dbhUORfPm"></path><path d="M27.58 603.8L63.43 603.8L63.43 611.33L27.58 611.33L27.58 603.8Z" id="d5CT7t9At"></path><path d="M27.58 601.6L63.43 601.6L63.43 604.2L27.58 604.2L27.58 601.6Z" id="a1QoG2rutq"></path><path d="M289.57 603.8L325.42 603.8L325.42 611.33L289.57 611.33L289.57 603.8Z" id="a3oBU4Ixhm"></path><path d="M289.57 601.6L325.42 601.6L325.42 604.2L289.57 604.2L289.57 601.6Z" id="dhzDKnZFC"></path><path d="M335 602L335 583.19L226.03 37.63L181.45 0L171.55 0L126.97 37.63L18 583.19L18 602L335 602Z" id="b2FF9nwCAe"></path><path d="M143.27 56.44L69.65 425.63L63.7 425.63L137.75 56.44L143.27 56.44Z" id="c2aEM2bb6k"></path><path d="M337.35 454.38L338.64 454.59L339.9 454.9L341.12 455.29L342.3 455.77L343.44 456.33L344.54 456.96L345.58 457.66L346.57 458.44L347.5 459.28L348.38 460.18L349.19 461.15L349.93 462.17L350.6 463.24L351.19 464.36L351.71 465.52L352.15 466.73L352.5 467.98L352.76 469.26L352.93 470.57L353 471.91L352.97 473.26L352.85 474.57L352.63 475.86L352.33 477.12L351.94 478.34L351.46 479.53L350.9 480.67L350.27 481.76L349.56 482.8L348.79 483.79L347.95 484.73L347.05 485.6L346.08 486.41L345.06 487.15L343.99 487.82L342.87 488.42L341.71 488.93L340.5 489.37L339.25 489.72L337.97 489.98L336.66 490.15L335.32 490.22L333.97 490.2L332.66 490.08L331.37 489.86L330.11 489.55L328.89 489.16L327.7 488.68L326.56 488.13L325.47 487.49L324.43 486.79L323.44 486.01L322.5 485.17L321.63 484.27L320.82 483.31L320.08 482.29L319.41 481.22L318.81 480.1L318.29 478.93L317.86 477.72L317.51 476.48L317.25 475.2L317.08 473.88L317.01 472.54L317.03 471.2L317.15 469.88L317.37 468.59L317.68 467.33L318.07 466.11L318.55 464.93L319.1 463.79L319.74 462.69L320.44 461.65L321.22 460.66L322.06 459.73L322.96 458.85L323.92 458.04L324.94 457.3L326.01 456.63L327.13 456.04L328.3 455.52L329.51 455.08L330.75 454.73L332.03 454.47L333.35 454.3L334.69 454.23L336.03 454.26L337.35 454.38ZM332.19 463.46L330.98 463.94L329.86 464.59L328.84 465.38L327.95 466.31L327.19 467.35L326.58 468.49L326.14 469.72L325.87 471.03L325.8 472.39L325.92 473.75L326.23 475.04L326.72 476.25L327.37 477.37L328.16 478.39L329.08 479.28L330.13 480.04L331.27 480.65L332.5 481.09L333.8 481.36L335.16 481.43L336.52 481.31L337.82 481L339.03 480.51L340.15 479.86L341.16 479.07L342.06 478.14L342.81 477.1L343.42 475.96L343.87 474.73L344.13 473.43L344.21 472.07L344.09 470.71L343.77 469.41L343.29 468.2L342.64 467.08L341.85 466.07L340.92 465.17L339.88 464.42L338.74 463.81L337.51 463.36L336.2 463.09L334.84 463.02L333.48 463.14L332.19 463.46Z" id="b2T3MHBXeF"></path><path d="M285.27 425.63L210.98 56.44" id="aLs4vkHCH"></path><path d="M211.57 56.44L137.9 56.44" id="a14k8caNb2"></path></defs><g><g><g><use xlink:href="#dbhUORfPm" opacity="1" fill="#a5a8a4" fill-opacity="1"></use></g><g><use xlink:href="#d5CT7t9At" opacity="1" fill="#2c2d28" fill-opacity="1"></use></g><g><use xlink:href="#a1QoG2rutq" opacity="1" fill="#000000" fill-opacity="1"></use></g><g><use xlink:href="#a3oBU4Ixhm" opacity="1" fill="#2c2d28" fill-opacity="1"></use></g><g><use xlink:href="#dhzDKnZFC" opacity="1" fill="#000000" fill-opacity="1"></use></g><g><use xlink:href="#b2FF9nwCAe" opacity="1" fill="#2c2d28" fill-opacity="1"></use></g><g><use xlink:href="#c2aEM2bb6k" opacity="1" fill="#000000" fill-opacity="1"></use></g><g><use xlink:href="#b2T3MHBXeF" opacity="1" fill="#a5a8a4" fill-opacity="1"></use></g><g><g><use xlink:href="#aLs4vkHCH" opacity="1" fill-opacity="0" stroke="#000000" stroke-width="2" stroke-opacity="1"></use></g></g><g><g><use xlink:href="#a14k8caNb2" opacity="1" fill-opacity="0" stroke="#000000" stroke-width="5" stroke-opacity="1"></use></g></g></g></g></svg>