<?xml version="1.0" encoding="UTF-8" standalone="no"?>
<!DOCTYPE svg PUBLIC "-//W3C//DTD SVG 1.1//EN" "http://www.w3.org/Graphics/SVG/1.1/DTD/svg11.dtd">
<svg version="1.1" xmlns="http://www.w3.org/2000/svg" xmlns:xlink="http://www.w3.org/1999/xlink" preserveAspectRatio="xMidYMid meet" viewBox="289.58333333333337 253.75000000000006 54.91666666666663 47" width="50.92" height="43"><defs><path d="M322.7 254.92L324.01 255.12L325.29 255.41L326.55 255.77L327.77 256.2L328.95 256.7L330.1 257.27L331.21 257.91L332.28 258.6L333.3 259.36L334.28 260.18L335.2 261.05L336.07 261.97L336.89 262.95L337.65 263.97L338.34 265.04L338.98 266.15L339.55 267.3L340.05 268.48L340.48 269.7L340.84 270.96L341.13 272.24L341.33 273.55L341.46 274.89L341.5 276.25L341.46 277.61L341.33 278.95L341.13 280.26L340.84 281.54L340.48 282.8L340.05 284.02L339.55 285.2L338.98 286.35L338.34 287.46L337.65 288.53L336.89 289.55L336.07 290.53L335.2 291.45L334.28 292.32L333.3 293.14L332.28 293.9L331.21 294.59L330.1 295.23L328.95 295.8L327.77 296.3L326.55 296.73L325.29 297.09L324.01 297.38L322.7 297.58L321.36 297.71L320 297.75L318.64 297.71L317.3 297.58L315.99 297.38L314.71 297.09L313.45 296.73L312.23 296.3L311.05 295.8L309.9 295.23L308.79 294.59L307.72 293.9L306.7 293.14L305.72 292.32L304.8 291.45L303.93 290.53L303.11 289.55L302.35 288.53L301.66 287.46L301.02 286.35L300.45 285.2L299.95 284.02L299.52 282.8L299.16 281.54L298.87 280.26L298.67 278.95L298.54 277.61L298.5 276.25L298.54 274.89L298.67 273.55L298.87 272.24L299.16 270.96L299.52 269.7L299.95 268.48L300.45 267.3L301.02 266.15L301.66 265.04L302.35 263.97L303.11 262.95L303.93 261.97L304.8 261.05L305.72 260.18L306.7 259.36L307.72 258.6L308.79 257.91L309.9 257.27L311.05 256.7L312.23 256.2L313.45 255.77L314.71 255.41L315.99 255.12L317.3 254.92L318.64 254.79L320 254.75L321.36 254.79L322.7 254.92ZM317.29 265.59L316.03 265.99L314.83 266.54L313.72 267.22L312.7 268.03L311.78 268.95L310.97 269.97L310.29 271.08L309.74 272.28L309.34 273.54L309.09 274.87L309 276.25L309.09 277.63L309.34 278.96L309.74 280.22L310.29 281.42L310.97 282.53L311.78 283.55L312.7 284.47L313.72 285.28L314.83 285.96L316.03 286.51L317.29 286.91L318.62 287.16L320 287.25L321.38 287.16L322.71 286.91L323.97 286.51L325.17 285.96L326.28 285.28L327.3 284.47L328.22 283.55L329.03 282.53L329.71 281.42L330.26 280.22L330.66 278.96L330.91 277.63L331 276.25L330.91 274.87L330.66 273.54L330.26 272.28L329.71 271.08L329.03 269.97L328.22 268.95L327.3 268.03L326.28 267.22L325.17 266.54L323.97 265.99L322.71 265.59L321.38 265.34L320 265.25L318.62 265.34L317.29 265.59Z" id="aAR6zeXa8"></path><path d="M290.58 269.83L306.42 269.83L306.42 282.67L290.58 282.67L290.58 269.83Z" id="amGd2fGXL"></path></defs><g><g><use xlink:href="#aAR6zeXa8" opacity="1" fill="#a5a8a4" fill-opacity="1"></use></g><g><use xlink:href="#amGd2fGXL" opacity="1" fill="#a5a8a4" fill-opacity="1"></use></g></g></svg>